<svg id="bubbleme" viewBox="0 0 89.57 19.69">
  <path d="M0,15.45V4.08h3.98c1.38,0,2.43.26,3.14.79.71.53,1.07,1.3,1.07,2.32,0,.56-.14,1.05-.43,1.47-.29.42-.69.74-1.2.93.58.15,1.04.44,1.38.88.34.44.5.98.5,1.62,0,1.09-.35,1.92-1.05,2.48-.7.56-1.69.85-2.98.86H0ZM2.34,8.84h1.73c1.18-.02,1.77-.49,1.77-1.41,0-.52-.15-.89-.45-1.11-.3-.23-.77-.34-1.42-.34h-1.64v2.87ZM2.34,10.5v3.07h2.01c.55,0,.98-.13,1.29-.39.31-.26.46-.63.46-1.09,0-1.04-.54-1.57-1.62-1.59h-2.15Z"/>
  <path d="M19.46,4.08v7.49c0,1.25-.39,2.23-1.17,2.95-.78.72-1.84,1.09-3.19,1.09s-2.38-.35-3.16-1.05-1.18-1.67-1.2-2.9v-7.58h2.34v7.51c0,.75.18,1.29.54,1.63.36.34.85.51,1.48.51,1.32,0,1.99-.69,2.01-2.08v-7.57h2.35Z"/>
  <path d="M22.02,15.45V4.08h3.98c1.38,0,2.43.26,3.14.79.71.53,1.07,1.3,1.07,2.32,0,.56-.14,1.05-.43,1.47-.29.42-.69.74-1.2.93.58.15,1.04.44,1.38.88.34.44.5.98.5,1.62,0,1.09-.35,1.92-1.05,2.48-.7.56-1.69.85-2.98.86h-4.42ZM24.37,8.84h1.73c1.18-.02,1.77-.49,1.77-1.41,0-.52-.15-.89-.45-1.11-.3-.23-.77-.34-1.42-.34h-1.64v2.87ZM24.37,10.5v3.07h2.01c.55,0,.98-.13,1.29-.39.31-.26.46-.63.46-1.09,0-1.04-.54-1.57-1.62-1.59h-2.15Z"/>
  <path d="M32.87,15.45V4.08h3.98c1.38,0,2.43.26,3.14.79.71.53,1.07,1.3,1.07,2.32,0,.56-.14,1.05-.43,1.47-.29.42-.69.74-1.2.93.58.15,1.04.44,1.38.88.34.44.5.98.5,1.62,0,1.09-.35,1.92-1.05,2.48-.7.56-1.69.85-2.98.86h-4.42ZM35.22,8.84h1.73c1.18-.02,1.77-.49,1.77-1.41,0-.52-.15-.89-.45-1.11-.3-.23-.77-.34-1.42-.34h-1.64v2.87ZM35.22,10.5v3.07h2.01c.55,0,.98-.13,1.29-.39.31-.26.46-.63.46-1.09,0-1.04-.54-1.57-1.62-1.59h-2.15Z"/>
  <path d="M46.07,13.57h4.98v1.88h-7.32V4.08h2.34v9.49Z"/>
  <path d="M59.87,10.52h-4.5v3.05h5.28v1.88h-7.62V4.08h7.61v1.9h-5.27v2.71h4.5v1.84Z"/>
  <path d="M70.35,4.08l2.92,8.25,2.91-8.25h3.08v11.38h-2.35v-3.11l.23-5.37-3.07,8.48h-1.61l-3.06-8.47.23,5.36v3.11h-2.34V4.08h3.06Z"/>
  <path d="M88.79,10.52h-4.5v3.05h5.28v1.88h-7.62V4.08h7.61v1.9h-5.27v2.71h4.5v1.84Z"/>
</svg>