<svg id="clickme" viewBox="0 0 89.57 19.69">
  <path d="M16.62,11.74c-.09,1.22-.54,2.19-1.36,2.89-.82.7-1.89,1.05-3.22,1.05-1.46,0-2.61-.49-3.44-1.47-.84-.98-1.25-2.33-1.25-4.04v-.7c0-1.09.19-2.06.58-2.89.39-.83.94-1.47,1.65-1.92.72-.45,1.55-.67,2.5-.67,1.31,0,2.37.35,3.17,1.05.8.7,1.27,1.69,1.39,2.96h-2.34c-.06-.73-.26-1.27-.61-1.6-.35-.33-.89-.5-1.61-.5-.78,0-1.37.28-1.75.84-.39.56-.59,1.43-.6,2.61v.86c0,1.23.19,2.13.56,2.7.37.57.96.85,1.76.85.72,0,1.26-.17,1.62-.5.36-.33.56-.84.61-1.54h2.34Z"/>
  <path d="M21.15,13.65h4.98v1.88h-7.32V4.16h2.34v9.49Z"/>
  <path d="M30.6,15.53h-2.34V4.16h2.34v11.38Z"/>
  <path d="M42.34,11.74c-.09,1.22-.54,2.19-1.36,2.89-.82.7-1.89,1.05-3.22,1.05-1.46,0-2.61-.49-3.44-1.47-.84-.98-1.25-2.33-1.25-4.04v-.7c0-1.09.19-2.06.58-2.89.39-.83.94-1.47,1.65-1.92.72-.45,1.55-.67,2.5-.67,1.31,0,2.37.35,3.17,1.05.8.7,1.27,1.69,1.39,2.96h-2.34c-.06-.73-.26-1.27-.61-1.6-.35-.33-.89-.5-1.61-.5-.78,0-1.37.28-1.75.84-.39.56-.59,1.43-.6,2.61v.86c0,1.23.19,2.13.56,2.7.37.57.96.85,1.76.85.72,0,1.26-.17,1.62-.5.36-.33.56-.84.61-1.54h2.34Z"/>
  <path d="M48.08,10.97l-1.22,1.31v3.25h-2.34V4.16h2.34v5.16l1.03-1.41,2.9-3.74h2.88l-4.04,5.05,4.16,6.32h-2.79l-2.92-4.56Z"/>
  <path d="M63,4.16l2.92,8.25,2.91-8.25h3.08v11.38h-2.35v-3.11l.23-5.37-3.07,8.48h-1.61l-3.06-8.47.23,5.36v3.11h-2.34V4.16h3.06Z"/>
  <path d="M81.44,10.6h-4.5v3.05h5.28v1.88h-7.62V4.16h7.61v1.9h-5.27v2.71h4.5v1.84Z"/>
</svg>